<svg xmlns="http://www.w3.org/2000/svg" viewBox="0 0 64 64"><rect width="64" height="64" rx="14" fill="#056FEC"/><g transform="translate(13 7) scale(0.47)"><path d="M44.8509 41.1819C31.0155 46.9542 20.4002 55.147 15.2107 67.642C9.89322 80.5974 20.9615 87.5064 32.8373 84.2826C41.0794 82.1947 49.0458 76.2854 55.673 69.5037C68.9076 56.715 72.7281 34.6551 59.5134 20.6803C45.5402 5.56871 22.99 11.1449 8.42598 23.2381C5.62936 25.4039 2.27145 21.3565 4.91051 19.0241C16.7666 8.44993 34.4424 0.727515 50.7592 5.99991C67.7851 11.0273 78.7452 28.9123 77.4849 46.2486C76.559 63.8298 65.4119 78.3339 51.7538 88.3884C38.6668 98.7179 15.9 103.088 4.39846 87.5847C-4.72008 74.9917 1.72986 57.9596 10.5333 47.3853C17.8005 38.3791 26.0722 30.9213 35.5059 25.2667C44.9789 20.0139 53.5362 34.2827 44.1714 39.7511L44.8509 41.1819Z" fill="#FF7F1C"/><path d="M49.5845 53.9871L50.4806 77.8302C50.6578 82.3382 48.1271 85.2292 43.8337 85.3959C39.5502 85.5627 36.8028 82.8772 36.6255 78.3596L35.7294 54.5163C35.5522 50.0083 38.0829 47.1173 42.3763 46.9507C46.6599 46.7841 49.4072 49.4791 49.5845 53.9871Z" fill="#fff"/><path d="M40.8852 42.0591C46.0246 42.0591 50.1909 37.9128 50.1909 32.7981C50.1909 27.6834 46.0246 23.5371 40.8852 23.5371C35.7459 23.5371 31.5796 27.6834 31.5796 32.7981C31.5796 37.9128 35.7459 42.0591 40.8852 42.0591Z" fill="#FFD700"/></g></svg>
